<svg xmlns="http://www.w3.org/2000/svg" xmlns:xlink="http://www.w3.org/1999/xlink" preserveAspectRatio="xMidYMid" width="23" height="21.03" viewBox="0 0 23 21.03">
  <defs>
    <style>
      .cls-1 {
        fill: #2e4f87;
        fill-rule: evenodd;
      }
    </style>
  </defs>
  <path d="M1.926,11.813 L2.153,11.577 L9.817,3.609 L11.210,2.160 L11.214,2.164 C11.242,2.134 11.267,2.101 11.295,2.072 C13.941,-0.680 18.265,-0.645 20.953,2.149 C23.640,4.943 23.673,9.439 21.027,12.190 C20.766,12.462 20.489,12.717 20.204,12.961 L20.245,13.003 L18.852,14.452 L17.458,15.900 L13.278,20.247 C12.893,20.647 12.270,20.647 11.886,20.248 C11.503,19.849 11.503,19.201 11.888,18.801 L16.068,14.455 L17.462,13.006 L18.855,11.558 L18.863,11.566 L19.762,10.631 C21.711,8.604 21.514,5.566 19.590,3.566 C17.666,1.565 14.744,1.361 12.795,3.387 L12.592,3.598 L12.600,3.606 L11.207,5.055 L5.666,10.815 L3.543,13.022 L3.181,13.399 L2.846,13.747 L2.816,13.715 C2.715,13.824 2.629,13.942 2.544,14.061 L2.150,14.471 L2.250,14.575 C1.731,15.722 1.916,17.126 2.826,18.072 C3.736,19.017 5.086,19.209 6.189,18.670 L6.321,18.808 L7.017,18.083 L8.411,16.634 L9.811,15.178 L13.416,11.431 L14.681,10.115 L15.378,9.391 C15.762,8.991 15.763,8.343 15.379,7.944 C14.995,7.545 14.372,7.546 13.987,7.946 L12.025,9.986 L7.717,14.465 C7.332,14.865 6.709,14.865 6.325,14.466 C5.941,14.067 5.942,13.419 6.327,13.019 L12.597,6.500 C13.751,5.300 15.621,5.298 16.773,6.495 C17.924,7.693 17.922,9.636 16.768,10.836 C16.523,11.092 16.244,11.287 15.948,11.433 L16.071,11.561 L8.408,19.529 L8.406,19.527 C6.472,21.520 3.356,21.520 1.433,19.521 C-0.495,17.516 -0.492,14.262 1.441,12.253 C1.595,12.093 1.757,11.947 1.926,11.813 Z" class="cls-1"/>
</svg>
