<?xml version="1.0" encoding="UTF-8"?>
<svg width="15px" height="15px" viewBox="0 0 15 15" version="1.1" xmlns="http://www.w3.org/2000/svg" xmlns:xlink="http://www.w3.org/1999/xlink">
    <g stroke="none" stroke-width="1" fill="none" fill-rule="evenodd">
        <g id="pop-up-tours" transform="translate(-783.000000, -522.000000)" fill-rule="nonzero" fill="#333333">
            <g id="schedule" transform="translate(783.000000, 521.000000)">
                <path d="M10.9945374,2.0078746 L10.9945374,1.49574121 C10.9945374,1.21924121 10.7710374,0.995741209 10.4945374,0.995741209 C10.2180374,0.995741209 9.99453735,1.21924121 9.99453735,1.49574121 L9.99453735,2.0078746 L8,2.0078746 L8,1.49574121 C8,1.21924121 7.776,0.995741209 7.5,0.995741209 C7.224,0.995741209 7,1.21924121 7,1.49574121 L7,2.0078746 L5,2.0078746 L5,1.49574121 C5,1.21924121 4.776,0.995741209 4.5,0.995741209 C4.224,0.995741209 4,1.21924121 4,1.49574121 L4,2.0078746 L1.3335,2.0078746 C0.597,2.0078746 0,2.6043746 0,3.3408746 L0,14.6665 C0,15.403 0.597,16 1.3335,16 L13.667,16 C14.4035,16 15,15.403 15,14.6665 L15,3.3408746 C15,2.6043746 14.4035,2.0078746 13.667,2.0078746 L10.9945374,2.0078746 Z M14,14.6665 C14,14.8505 13.8505,15 13.667,15 L1.3335,15 C1.1495,15 1,14.8505 1,14.6665 L1,3.3408746 C1,3.1573746 1.14066125,2.98957825 1.32466125,2.98957825 L2.45265198,2.98957825 L4,2.98957825 L4,3.5019102 C4,3.7784102 4.224,4.0019102 4.5,4.0019102 C4.776,4.0019102 5,3.7784102 5,3.5019102 L5,3.0078746 L7,3.0078746 L7,3.5019102 C7,3.7784102 7.224,4.0019102 7.5,4.0019102 C7.776,4.0019102 8,3.7784102 8,3.5019102 L8,3.0078746 L9.99453735,3.0078746 L9.99453735,3.5019102 C9.99453735,3.7784102 10.2180374,4.0019102 10.4945374,4.0019102 C10.7710374,4.0019102 10.9945374,3.7784102 10.9945374,3.5019102 L10.9945374,3.0078746 L13.667,3.0078746 C13.8505,3.0078746 14,3.1573746 14,3.3408746 L14,14.6665 Z M4,7 L4.99238586,7 L4.99238586,8.00416565 L4,8.00416565 L4,7 Z M4,8.99839783 L4.99238586,8.99839783 L4.99238586,10 L4,10 L4,8.99839783 Z M4,11 L4.99238586,11 L4.99238586,12 L4,12 L4,11 Z M7,10.9917603 L8,11 L8,12 L7,11.9917603 L7,10.9917603 Z M7,8.99839783 L8,8.99839783 L8,10 L7,10 L7,8.99839783 Z M7,7 L8,7 L8,8.00416565 L7,8.00416565 L7,7 Z M9.99453735,11 L11,11 L10.9994659,11.9908142 L9.99453735,11.9908142 L9.99453735,11 Z M9.99453735,9.01678467 L11,9.01678467 L11,10 L9.99453735,10 L9.99453735,9.01678467 Z M9.99453735,7 L11,7 L11,8.00416565 L9.99453735,8.00416565 L9.99453735,7 Z" id="Shape"></path>
            </g>
        </g>
    </g>
</svg>