<?xml version="1.0" encoding="utf-8"?><svg xmlns="http://www.w3.org/2000/svg" xmlns:xlink="http://www.w3.org/1999/xlink"><symbol viewBox="0 0 15 15" id="schedule-sub" xmlns="http://www.w3.org/2000/svg"><path d="M10.995 1.008V.496a.5.5 0 1 0-1 0v.512H8V.496a.5.5 0 1 0-1 0v.512H5V.496a.5.5 0 1 0-1 0v.512H1.333C.597 1.008 0 1.604 0 2.34v11.325C0 14.403.597 15 1.333 15h12.334c.736 0 1.333-.597 1.333-1.334V2.341c0-.737-.597-1.333-1.333-1.333h-2.672zM14 13.666c0 .184-.15.334-.333.334H1.333A.334.334 0 0 1 1 13.666V2.341c0-.184.14-.351.325-.351H4v.512a.5.5 0 1 0 1 0v-.494h2v.494a.5.5 0 1 0 1 0v-.494h1.995v.494a.5.5 0 1 0 1 0v-.494h2.672c.184 0 .333.15.333.333v11.325zM4 6h.992v1.004H4V6zm0 1.998h.992V9H4V7.998zM4 10h.992v1H4v-1zm3-.008L8 10v1l-1-.008v-1zm0-1.994h1V9H7V7.998zM7 6h1v1.004H7V6zm2.995 4H11v.99H9.994V10zm0-1.983H11V9H9.995v-.983zm0-2.017H11v1.004H9.995V6z"/></symbol></svg>