<?xml version="1.0" encoding="utf-8"?>
<!-- Generator: Adobe Illustrator 17.1.0, SVG Export Plug-In . SVG Version: 6.00 Build 0)  -->
<!DOCTYPE svg PUBLIC "-//W3C//DTD SVG 1.1//EN" "http://www.w3.org/Graphics/SVG/1.1/DTD/svg11.dtd">
<svg version="1.1" id="Layer_1" xmlns="http://www.w3.org/2000/svg" xmlns:xlink="http://www.w3.org/1999/xlink" x="0px" y="0px"
	 viewBox="0 0 34 34" enable-background="new 0 0 34 34" xml:space="preserve">
<g>
	<path fill="#37739D" d="M23.5,13.5c-0.5,0-0.9,0-1.4,0c-0.3,0-0.7,0-1,0c-0.2,0-0.3,0.1-0.4,0.3c-0.1,0.3-0.2,0.6-0.4,0.8
		c-0.3,0.7-0.7,1.4-1.2,2c-0.1,0.1-0.2,0.2-0.3,0.3c-0.2,0.2-0.5,0.1-0.5-0.1c-0.1-0.2-0.1-0.4-0.1-0.6c0-0.7,0-1.4,0-2
		c0-0.2,0-0.3-0.1-0.5c0-0.3-0.2-0.4-0.5-0.4c-0.4,0-0.7-0.1-1.1-0.1c-0.3,0-0.6,0-0.9,0c-0.2,0-0.4,0-0.6,0.1
		c-0.1,0.1-0.3,0.2-0.4,0.3c-0.1,0.1-0.1,0.1,0.1,0.1c0.1,0,0.3,0.1,0.4,0.2c0.2,0.1,0.3,0.4,0.3,0.6c0.1,0.6,0.1,1.2,0,1.7
		c0,0.2-0.1,0.5-0.2,0.7C15.2,17,15.1,17.1,15,17c-0.1-0.1-0.3-0.1-0.4-0.2c-0.3-0.3-0.5-0.6-0.7-0.9c-0.3-0.6-0.6-1.1-0.9-1.7
		C13,14.1,13,14,13,13.9c-0.1-0.3-0.3-0.4-0.6-0.4c-0.7,0-1.3,0-2,0c-0.2,0-0.3,0-0.4,0.2c0,0.1,0,0.1,0,0.2
		c0.1,0.3,0.2,0.5,0.4,0.8c0.3,0.6,0.6,1.2,0.9,1.8c0.3,0.6,0.7,1.1,1,1.7c0.3,0.5,0.7,0.9,1.1,1.3c0.4,0.4,0.8,0.7,1.3,1
		c0.7,0.4,1.4,0.6,2.1,0.6c0.3,0,0.6,0,0.9,0c0.3,0,0.4-0.2,0.5-0.5c0-0.2,0-0.5,0.1-0.7c0-0.2,0.1-0.4,0.3-0.6
		c0.1-0.1,0.2-0.1,0.4,0c0.2,0.1,0.4,0.3,0.6,0.5c0.3,0.3,0.5,0.6,0.8,0.8c0.3,0.3,0.6,0.5,1.1,0.5c0.4,0,0.8,0,1.2,0
		c0.3,0,0.6,0,0.9,0c0.3,0,0.4-0.1,0.5-0.4c0,0,0,0,0,0c-0.1-0.5-0.5-0.9-0.8-1.3c-0.4-0.4-0.8-0.8-1.3-1.3
		c-0.3-0.3-0.3-0.6-0.1-0.9c0.3-0.4,0.7-0.9,1-1.3c0.4-0.5,0.7-1,1-1.5c0.1-0.1,0.1-0.3,0.2-0.5c0-0.1,0-0.1,0-0.2
		C23.9,13.5,23.7,13.5,23.5,13.5z"/>
	<path fill="#37739D" d="M0,0v34h34V0H0z M26,22.8c0,1.7-1.4,3.2-3.2,3.2H11.2C9.4,26,8,24.6,8,22.8V11.2C8,9.4,9.4,8,11.2,8h11.7
		c1.7,0,3.2,1.4,3.2,3.2V22.8z"/>
</g>
</svg>
