<?xml version="1.0" encoding="utf-8"?><svg xmlns="http://www.w3.org/2000/svg" xmlns:xlink="http://www.w3.org/1999/xlink"><symbol viewBox="0 0 15 15" id="schedule-sub" xmlns="http://www.w3.org/2000/svg"><path d="M10.995 1.008V.496a.5.5 0 1 0-1 0v.512H8V.496a.5.5 0 1 0-1 0v.512H5V.496a.5.5 0 1 0-1 0v.512H1.333C.597 1.008 0 1.604 0 2.34v11.325C0 14.403.597 15 1.333 15h12.334c.736 0 1.333-.597 1.333-1.334V2.341c0-.737-.597-1.333-1.333-1.333h-2.672zM14 13.666c0 .184-.15.334-.333.334H1.333A.334.334 0 0 1 1 13.666V2.341c0-.184.14-.351.325-.351H4v.512a.5.5 0 1 0 1 0v-.494h2v.494a.5.5 0 1 0 1 0v-.494h1.995v.494a.5.5 0 1 0 1 0v-.494h2.672c.184 0 .333.15.333.333v11.325zM4 6h.992v1.004H4V6zm0 1.998h.992V9H4V7.998zM4 10h.992v1H4v-1zm3-.008L8 10v1l-1-.008v-1zm0-1.994h1V9H7V7.998zM7 6h1v1.004H7V6zm2.995 4H11v.99H9.994V10zm0-1.983H11V9H9.995v-.983zm0-2.017H11v1.004H9.995V6z"/></symbol><symbol viewBox="0 0 34 34" id="vk" xmlns="http://www.w3.org/2000/svg"><g fill="#ddd"><path d="M23.5 13.5h-2.4c-.2 0-.3.1-.4.3-.1.3-.2.6-.4.8-.3.7-.7 1.4-1.2 2l-.3.3c-.2.2-.5.1-.5-.1-.1-.2-.1-.4-.1-.6v-2c0-.2 0-.3-.1-.5 0-.3-.2-.4-.5-.4-.4 0-.7-.1-1.1-.1h-.9c-.2 0-.4 0-.6.1-.1.1-.3.2-.4.3-.1.1-.1.1.1.1.1 0 .3.1.4.2.2.1.3.4.3.6.1.6.1 1.2 0 1.7 0 .2-.1.5-.2.7 0 .1-.1.2-.2.1s-.3-.1-.4-.2c-.3-.3-.5-.6-.7-.9-.3-.6-.6-1.1-.9-1.7v-.3c-.1-.3-.3-.4-.6-.4h-2c-.2 0-.3 0-.4.2v.2c.1.3.2.5.4.8l.9 1.8c.3.6.7 1.1 1 1.7.3.5.7.9 1.1 1.3.4.4.8.7 1.3 1 .7.4 1.4.6 2.1.6h.9c.3 0 .4-.2.5-.5 0-.2 0-.5.1-.7 0-.2.1-.4.3-.6.1-.1.2-.1.4 0s.4.3.6.5c.3.3.5.6.8.8.3.3.6.5 1.1.5h2.1c.3 0 .4-.1.5-.4-.1-.5-.5-.9-.8-1.3L22 18.1c-.3-.3-.3-.6-.1-.9.3-.4.7-.9 1-1.3.4-.5.7-1 1-1.5.1-.1.1-.3.2-.5v-.2c-.2-.2-.4-.2-.6-.2z"/><path d="M0 0v34h34V0H0zm26 22.8c0 1.7-1.4 3.2-3.2 3.2H11.2C9.4 26 8 24.6 8 22.8V11.2C8 9.4 9.4 8 11.2 8h11.7c1.7 0 3.2 1.4 3.2 3.2v11.6z"/></g></symbol></svg>