<?xml version="1.0" encoding="utf-8"?><svg xmlns="http://www.w3.org/2000/svg" xmlns:xlink="http://www.w3.org/1999/xlink"><symbol preserveAspectRatio="xMidYMid" viewBox="0 0 23 21.03" id="Ellipse3" xmlns="http://www.w3.org/2000/svg"><defs><style>.acls-1{fill:#2e4f87;fill-rule:evenodd}</style></defs><path d="M1.926 11.813l.227-.236 7.664-7.968L11.21 2.16l.004.004c.028-.03.053-.063.081-.092 2.646-2.752 6.97-2.717 9.658.077 2.687 2.794 2.72 7.29.074 10.041-.261.272-.538.527-.823.771l.041.042-1.393 1.449-1.394 1.448-4.18 4.347a.958.958 0 0 1-1.392.001 1.053 1.053 0 0 1 .002-1.447l4.18-4.346 1.394-1.449 1.393-1.448.008.008.899-.935c1.949-2.027 1.752-5.065-.172-7.065-1.924-2.001-4.846-2.205-6.795-.179l-.203.211.008.008-1.393 1.449-5.541 5.76-2.123 2.207-.362.377-.335.348-.03-.032a3.445 3.445 0 0 0-.272.346l-.394.41.1.104c-.519 1.147-.334 2.551.576 3.497a2.881 2.881 0 0 0 3.363.598l.132.138.696-.725 1.394-1.449 1.4-1.456 3.605-3.747 1.265-1.316.697-.724c.384-.4.385-1.048.001-1.447a.958.958 0 0 0-1.392.002l-1.962 2.04-4.308 4.479a.958.958 0 0 1-1.392.001 1.052 1.052 0 0 1 .002-1.447l6.27-6.519a2.875 2.875 0 0 1 4.176-.005c1.151 1.198 1.149 3.141-.005 4.341a2.905 2.905 0 0 1-.82.597l.123.128-7.663 7.968-.002-.002c-1.934 1.993-5.05 1.993-6.973-.006-1.928-2.005-1.925-5.259.008-7.268.154-.16.316-.306.485-.44z" class="acls-1"/></symbol><symbol viewBox="0 0 15 15" id="schedule-sub" xmlns="http://www.w3.org/2000/svg"><path d="M10.995 1.008V.496a.5.5 0 1 0-1 0v.512H8V.496a.5.5 0 1 0-1 0v.512H5V.496a.5.5 0 1 0-1 0v.512H1.333C.597 1.008 0 1.604 0 2.34v11.325C0 14.403.597 15 1.333 15h12.334c.736 0 1.333-.597 1.333-1.334V2.341c0-.737-.597-1.333-1.333-1.333h-2.672zM14 13.666c0 .184-.15.334-.333.334H1.333A.334.334 0 0 1 1 13.666V2.341c0-.184.14-.351.325-.351H4v.512a.5.5 0 1 0 1 0v-.494h2v.494a.5.5 0 1 0 1 0v-.494h1.995v.494a.5.5 0 1 0 1 0v-.494h2.672c.184 0 .333.15.333.333v11.325zM4 6h.992v1.004H4V6zm0 1.998h.992V9H4V7.998zM4 10h.992v1H4v-1zm3-.008L8 10v1l-1-.008v-1zm0-1.994h1V9H7V7.998zM7 6h1v1.004H7V6zm2.995 4H11v.99H9.994V10zm0-1.983H11V9H9.995v-.983zm0-2.017H11v1.004H9.995V6z"/></symbol><symbol viewBox="0 0 15 14" id="star" xmlns="http://www.w3.org/2000/svg"><path fill="#FFB821" d="M7.5 11.9L12 14l-.6-5 3.5-3.7-5-.9L7.5 0 5.1 4.4l-5 .9L3.6 9 3 14z"/></symbol><symbol viewBox="0 0 34 34" id="vk" xmlns="http://www.w3.org/2000/svg"><g fill="#ddd"><path d="M23.5 13.5h-2.4c-.2 0-.3.1-.4.3-.1.3-.2.6-.4.8-.3.7-.7 1.4-1.2 2l-.3.3c-.2.2-.5.1-.5-.1-.1-.2-.1-.4-.1-.6v-2c0-.2 0-.3-.1-.5 0-.3-.2-.4-.5-.4-.4 0-.7-.1-1.1-.1h-.9c-.2 0-.4 0-.6.1-.1.1-.3.2-.4.3-.1.1-.1.1.1.1.1 0 .3.1.4.2.2.1.3.4.3.6.1.6.1 1.2 0 1.7 0 .2-.1.5-.2.7 0 .1-.1.2-.2.1s-.3-.1-.4-.2c-.3-.3-.5-.6-.7-.9-.3-.6-.6-1.1-.9-1.7v-.3c-.1-.3-.3-.4-.6-.4h-2c-.2 0-.3 0-.4.2v.2c.1.3.2.5.4.8l.9 1.8c.3.6.7 1.1 1 1.7.3.5.7.9 1.1 1.3.4.4.8.7 1.3 1 .7.4 1.4.6 2.1.6h.9c.3 0 .4-.2.5-.5 0-.2 0-.5.1-.7 0-.2.1-.4.3-.6.1-.1.2-.1.4 0s.4.3.6.5c.3.3.5.6.8.8.3.3.6.5 1.1.5h2.1c.3 0 .4-.1.5-.4-.1-.5-.5-.9-.8-1.3L22 18.1c-.3-.3-.3-.6-.1-.9.3-.4.7-.9 1-1.3.4-.5.7-1 1-1.5.1-.1.1-.3.2-.5v-.2c-.2-.2-.4-.2-.6-.2z"/><path d="M0 0v34h34V0H0zm26 22.8c0 1.7-1.4 3.2-3.2 3.2H11.2C9.4 26 8 24.6 8 22.8V11.2C8 9.4 9.4 8 11.2 8h11.7c1.7 0 3.2 1.4 3.2 3.2v11.6z"/></g></symbol></svg>