<svg xmlns="http://www.w3.org/2000/svg" viewBox="0 0 34 34"><g fill="#ddd"><path d="M23.5 13.5h-2.4c-.2 0-.3.1-.4.3-.1.3-.2.6-.4.8-.3.7-.7 1.4-1.2 2l-.3.3c-.2.2-.5.1-.5-.1-.1-.2-.1-.4-.1-.6v-2c0-.2 0-.3-.1-.5 0-.3-.2-.4-.5-.4-.4 0-.7-.1-1.1-.1h-.9c-.2 0-.4 0-.6.1-.1.1-.3.2-.4.3-.1.1-.1.1.1.1.1 0 .3.1.4.2.2.1.3.4.3.6.1.6.1 1.2 0 1.7 0 .2-.1.5-.2.7 0 .1-.1.2-.2.1s-.3-.1-.4-.2c-.3-.3-.5-.6-.7-.9-.3-.6-.6-1.1-.9-1.7v-.3c-.1-.3-.3-.4-.6-.4h-2c-.2 0-.3 0-.4.2v.2c.1.3.2.5.4.8l.9 1.8c.3.6.7 1.1 1 1.7.3.5.7.9 1.1 1.3.4.4.8.7 1.3 1 .7.4 1.4.6 2.1.6h.9c.3 0 .4-.2.5-.5 0-.2 0-.5.1-.7 0-.2.1-.4.3-.6.1-.1.2-.1.4 0s.4.3.6.5c.3.3.5.6.8.8.3.3.6.5 1.1.5h2.1c.3 0 .4-.1.5-.4-.1-.5-.5-.9-.8-1.3L22 18.1c-.3-.3-.3-.6-.1-.9.3-.4.7-.9 1-1.3.4-.5.7-1 1-1.5.1-.1.1-.3.2-.5v-.2c-.2-.2-.4-.2-.6-.2z"/><path d="M0 0v34h34V0H0zm26 22.8c0 1.7-1.4 3.2-3.2 3.2H11.2C9.4 26 8 24.6 8 22.8V11.2C8 9.4 9.4 8 11.2 8h11.7c1.7 0 3.2 1.4 3.2 3.2v11.6z"/></g></svg>